<svg xmlns="http://www.w3.org/2000/svg" viewBox="0 0 253 45"><title>Asset 1</title><g id="Layer_2" data-name="Layer 2"><g id="Layer_1-2" data-name="Layer 1"><rect width="253" height="45" style="fill:#fe0000"/><path id="SVGID" d="M46.9771,11.18205,36.495,33.63469h5.25636l1.671-4.04067h7.68658l1.67165,4.04067h5.3778L47.676,11.18205Zm-1.914,14.46223,2.21783-5.3473,2.18757,5.3473Z" style="fill:#fff"/><path id="SVGID-2" data-name="SVGID" d="M64.66269,29.35079V24.18617a16.98063,16.98063,0,0,1,1.94491-.09146c2.73463,0,4.07095.9724,4.07095,2.67345,0,1.67164-1.24515,2.67408-3.85828,2.67408a20.81446,20.81446,0,0,1-2.15758-.09145m0-8.84138V15.8613a13.04413,13.04413,0,0,1,2.33991-.21325c2.18757,0,3.3118,1.094,3.3118,2.43109,0,1.61045-1.246,2.522-3.73713,2.522a15.36109,15.36109,0,0,1-1.91458-.09175M59.6499,11.63829v21.754a57.96844,57.96844,0,0,0,6.65352.45509c6.68413,0,9.96589-3.0688,9.96589-6.53179,0-2.55229-1.42835-4.31452-4.46653-5.22661,2.522-1.03219,3.82824-2.61232,3.82824-4.95166,0-3.09965-3.28118-5.98553-9.75265-5.98553a50.12776,50.12776,0,0,0-6.22847.48652" style="fill:#fff"/><polygon id="SVGID-3" data-name="SVGID" points="78.227 11.365 78.227 33.635 92.325 33.635 92.325 28.926 83.392 28.926 83.392 24.581 91.535 24.581 91.535 20.085 83.392 20.085 83.392 16.104 92.325 16.104 92.325 11.365 78.227 11.365" style="fill:#fff"/><path id="SVGID-4" data-name="SVGID" d="M100.17635,22.11981v-6.1373a10.77537,10.77537,0,0,1,2.00575-.15177c2.21813,0,3.67647,1.09361,3.67647,2.947,0,2.24846-1.57955,3.43352-4.04091,3.43352a15.76785,15.76785,0,0,1-1.64131-.09146m-5.16491-10.543V33.63469h5.16491V26.34283c.72975.03033,1.15508.06118,1.91481.06118a8.42074,8.42074,0,0,0,.88129-.03085l3.79768,7.26153h5.864l-5.226-8.59785a7.47371,7.47371,0,0,0,3.828-6.4412c0-4.07153-2.7344-7.38326-9.66177-7.38326a56.78394,56.78394,0,0,0-6.56293.36444" style="fill:#fff"/><polygon id="SVGID-5" data-name="SVGID" points="114.733 11.365 114.733 33.635 128.831 33.635 128.831 28.926 119.899 28.926 119.899 11.365 114.733 11.365" style="fill:#fff"/><polygon id="SVGID-6" data-name="SVGID" points="131.173 11.365 131.173 33.635 145.271 33.635 145.271 28.926 136.339 28.926 136.339 24.581 144.482 24.581 144.482 20.085 136.339 20.085 136.339 16.104 145.271 16.104 145.271 11.365 131.173 11.365" style="fill:#fff"/><path id="SVGID-7" data-name="SVGID" d="M152.49065,22.11981v-6.1373a10.77184,10.77184,0,0,1,2.00546-.15177c2.21813,0,3.67705,1.09361,3.67705,2.947,0,2.24846-1.58013,3.43352-4.041,3.43352a15.75174,15.75174,0,0,1-1.64155-.09146m-5.16519-10.543V33.63469h5.16519V26.34283c.72946.03033,1.1548.06118,1.91453.06118a8.4,8.4,0,0,0,.881-.03085l3.79767,7.26153h5.864l-5.22575-8.59785a7.47432,7.47432,0,0,0,3.828-6.4412c0-4.07153-2.73382-7.38326-9.66176-7.38326a56.7761,56.7761,0,0,0-6.56293.36444" style="fill:#fff"/><path d="M168.71,29.89784a1.99009,1.99009,0,1,1-1.97547,1.9752,1.97059,1.97059,0,0,1,1.97547-1.9752" style="fill:#fff"/><path d="M182.24467,34c-7.04828,0-12.00075-4.86159-12.00075-11.48512,0-6.593,5.01249-11.51488,12.00075-11.51488a13.91436,13.91436,0,0,1,7.17037,2.03544l-1.30546,3.22034a12.58648,12.58648,0,0,0-5.92522-1.70105c-4.89187,0-7.86979,3.25085-7.86979,7.96015,0,4.67861,3.07,7.93009,7.961,7.93009a12.644,12.644,0,0,0,6.07583-1.76223l1.1548,3.22034A13.9058,13.9058,0,0,1,182.24467,34" style="fill:#fff"/><path d="M201.06046,34c-6.44143,0-11.15072-4.89192-11.15072-11.48512A11.17583,11.17583,0,0,1,201.27342,11c6.44033,0,11.14956,4.89186,11.14956,11.51488A11.16864,11.16864,0,0,1,201.06046,34m.1215-19.59733c-4.25363,0-7.20093,3.46409-7.20093,8.11221,0,4.61807,2.9473,8.1122,7.20093,8.1122,4.223,0,7.17-3.49413,7.17-8.1122,0-4.64812-2.947-8.11221-7.17-8.11221" style="fill:#fff"/><polygon points="233.158 33.635 232.853 20.297 225.835 30.931 225.379 30.931 218.3 20.266 218.057 33.635 214.32 33.635 215.262 11.091 215.84 11.031 225.713 25.796 235.345 11.031 235.953 11.091 236.895 33.635 233.158 33.635" style="fill:#fff"/><polygon points="29.838 11.364 29.838 20.085 21.27 20.085 21.27 11.364 16.105 11.364 16.105 20.074 18.457 22.349 16.105 24.498 16.105 33.635 21.27 33.635 21.27 24.702 29.838 24.702 29.838 33.635 35.003 33.635 35.003 11.364 29.838 11.364" style="fill:#fff"/></g></g></svg>